<?xml version="1.0" encoding="UTF-8"?>
<svg width="59px" height="25px" viewBox="0 0 59 25" version="1.1" xmlns="http://www.w3.org/2000/svg" xmlns:xlink="http://www.w3.org/1999/xlink">
    <!-- Generator: sketchtool 63.1 (101010) - https://sketch.com -->
    <title>A1B5269B-36DD-41DC-87B6-D94659DA4655</title>
    <desc>Created with sketchtool.</desc>
    <g id="apstiprinats" stroke="none" stroke-width="1" fill="none" fill-rule="evenodd">
        <g id="EKO-nams-sakumlapa-apstiprinats-dizains-ar-proporciju-2" transform="translate(-691.000000, -3710.000000)" fill="#6E6E6E">
            <g id="Footer" transform="translate(60.000000, 3394.000000)">
                <g id="Footer-bottom" transform="translate(0.000000, 199.000000)">
                    <path d="M634.601634,126.963614 C635.636262,127.01585 636.628856,126.553451 637.246821,125.731354 L636.499641,125.055652 C636.082125,125.648831 635.391943,125.995916 634.661184,125.980194 C633.137048,125.980194 632.165714,124.806534 632.165714,123.236284 C632.165714,121.666035 633.137048,120.507094 634.661184,120.507094 C635.391124,120.478896 636.08486,120.822109 636.499641,121.416639 L637.246821,120.75649 C636.629082,119.93409 635.636364,119.471528 634.601634,119.523953 C632.449698,119.523953 631,121.137805 631,123.236284 C631,125.334764 632.449698,126.963614 634.601634,126.963614 Z M644.464695,121.915986 C644.464695,120.198821 643.209376,119.523953 641.670072,119.523953 C640.582862,119.488131 639.532448,119.91567 638.785844,120.69789 L639.30887,121.460797 C639.859351,120.821265 640.671451,120.460282 641.520636,120.477656 C642.566689,120.477656 643.343644,121.020883 643.343644,121.959867 L643.343644,123.237395 C642.727186,122.58746 641.852701,122.238649 640.952667,122.283692 C639.727123,122.283692 638.442309,123.017438 638.442309,124.616571 C638.442309,126.15766 639.742291,126.964724 640.952667,126.964724 C641.856365,126.996206 642.729168,126.637219 643.343644,125.981305 L643.343644,126.78837 L644.464695,126.78837 L644.464695,121.915986 Z M639.577686,124.616016 C639.577686,123.720912 640.31026,123.07576 641.3712,123.07576 C642.128822,123.046587 642.857322,123.366311 643.343644,123.941425 L643.343644,125.291162 C642.863263,125.875572 642.132248,126.201751 641.3712,126.171268 C640.31026,126.171268 639.577686,125.525561 639.577686,124.616016 Z M647.842175,121.651593 C648.335937,120.947402 649.142473,120.521396 650.008998,120.507094 C651.458416,120.507094 652.325257,121.681032 652.325257,123.251282 C652.325257,124.821531 651.458416,125.980194 650.008998,125.980194 C649.146958,125.976366 648.339886,125.561042 647.842175,124.865134 L647.842175,121.651593 Z M647.842175,125.732742 C648.411304,126.501175 649.314533,126.958145 650.277815,126.965002 C652.15981,126.965002 653.49069,125.556388 653.49069,123.25267 C653.49069,120.978114 652.17554,119.525341 650.277815,119.525341 C649.310896,119.531989 648.40555,119.995604 647.842175,120.772598 L647.842175,117 L646.721405,117 L646.721405,126.787259 L647.842175,126.787259 L647.842175,125.732742 Z M660.948168,121.916819 C660.948168,120.199654 659.692849,119.524786 658.153545,119.524786 C657.066335,119.488964 656.01592,119.916503 655.269316,120.698724 L655.792343,121.46163 C656.342848,120.82213 657.154931,120.461155 658.004109,120.478489 C659.050161,120.478489 659.827116,121.021716 659.827116,121.9607 L659.827116,123.238229 C659.210681,122.588261 658.33618,122.239444 657.436139,122.284526 C656.210876,122.284526 654.925782,123.018271 654.925782,124.617404 C654.925782,126.158493 656.225763,126.965558 657.436139,126.965558 C658.339837,126.99704 659.212641,126.638052 659.827116,125.982138 L659.827116,126.789203 L660.948168,126.789203 L660.948168,121.916819 Z M656.062282,124.616016 C656.062282,123.720912 656.794575,123.07576 657.855515,123.07576 C658.612871,123.046721 659.341058,123.366444 659.827116,123.941425 L659.827116,125.291162 C659.346916,125.875331 658.616272,126.201485 657.855515,126.171268 C656.794575,126.171268 656.062282,125.525561 656.062282,124.616016 Z M664.32649,126.787259 L664.32649,117 L663.20572,117 L663.20572,126.787259 L664.32649,126.787259 Z M667.688802,126.787259 L667.688802,117 L666.568031,117 L666.568031,126.787259 L667.688802,126.787259 Z M676.072109,125.863272 L675.534195,125.14369 C674.93967,125.730441 674.132668,126.057996 673.292654,126.053513 C671.738463,126.053513 670.797184,124.938453 670.708422,123.603157 L676.535024,123.603157 L676.535024,123.325434 C676.535024,121.197793 675.24993,119.525063 673.067938,119.525063 C671.005889,119.525063 669.511248,121.183351 669.511248,123.237395 C669.510967,125.451964 671.050271,126.963614 673.202206,126.963614 C674.269613,126.990167 675.30264,126.593981 676.072109,125.863272 Z M670.692411,122.781373 C670.752241,121.710471 671.51459,120.433775 673.051927,120.433775 C674.696567,120.433775 675.413691,121.739632 675.42886,122.781373 L670.692411,122.781373 Z M679.464757,126.787259 L679.464757,121.76907 C679.91594,121.117253 680.640871,120.701924 681.437201,120.639013 C681.582143,120.640411 681.726872,120.650334 681.870622,120.668729 L681.870622,119.538394 C680.910122,119.578901 680.022301,120.055464 679.464757,120.829809 L679.464757,119.699474 L678.343987,119.699474 L678.343987,126.787259 L679.464757,126.787259 Z M686.428422,126.963614 C688.62502,126.963614 690,125.290606 690,123.236284 C690,121.181963 688.62502,119.523953 686.428422,119.523953 C684.231824,119.523953 682.855158,121.18224 682.855158,123.236284 C682.855158,125.290329 684.231543,126.963614 686.427579,126.963614 L686.428422,126.963614 Z M684.037445,123.236284 C684.037445,121.798231 684.889118,120.507094 686.428422,120.507094 C687.967726,120.507094 688.819118,121.798231 688.819118,123.236284 C688.818275,124.688779 687.967445,125.980194 686.427579,125.980194 C684.889118,125.980194 684.037445,124.688779 684.037445,123.236284 Z M656.799632,132.025405 L664.647272,132.025405 L664.647272,132.604181 L656.799632,132.604181 L656.799632,132.025405 Z M643.73493,136.510086 L643.248982,136.510086 L643.248982,138.143379 C643.004841,137.806907 642.612759,137.606061 642.193941,137.602929 C641.379346,137.602929 640.802388,138.232251 640.802388,139.217614 C640.802388,140.215197 641.378223,140.825356 642.193941,140.825356 C642.611385,140.822575 643.002792,140.624341 643.248982,140.291016 L643.248982,140.748982 L643.734369,140.748982 L643.73493,136.510086 Z M642.317535,140.399606 C641.683274,140.399606 641.306313,139.897759 641.306313,139.217614 C641.306313,138.537469 641.68187,138.028957 642.317535,138.028957 C642.690714,138.036826 643.037391,138.221327 643.249544,138.524971 L643.249544,139.910535 C643.036392,140.212141 642.689635,140.394101 642.317535,140.399606 Z M644.950643,137.240777 C645.03644,137.241974 645.119109,137.208958 645.179994,137.149178 C645.240878,137.089399 645.274847,137.007896 645.274234,136.923061 C645.275058,136.837604 645.241356,136.755354 645.180606,136.69456 C645.119856,136.633766 645.03708,136.599454 644.950643,136.599235 C644.769344,136.59923 644.621981,136.743814 644.620592,136.923061 C644.621478,137.008552 644.656815,137.090162 644.718771,137.149802 C644.780727,137.209442 644.864184,137.242187 644.950643,137.240777 Z M645.189966,140.748982 L645.189966,137.679303 L644.70486,137.679303 L644.70486,140.748982 L645.189966,140.748982 Z M648.911261,140.704546 L648.911261,137.679303 L648.425875,137.679303 L648.425875,138.143379 C648.181734,137.806907 647.789652,137.606061 647.370834,137.602929 C646.548935,137.602929 645.97928,138.213921 645.97928,139.198173 C645.97928,140.189647 646.555396,140.787308 647.370834,140.787308 C647.790076,140.779806 648.181146,140.577111 648.425875,140.24047 L648.425875,140.704546 C648.425875,141.352753 647.934028,141.600483 647.414653,141.600483 C647.028662,141.631493 646.650975,141.477974 646.398656,141.187508 L646.152593,141.530497 C646.48407,141.86166 646.946268,142.031631 647.416058,141.995128 C648.179811,141.995128 648.911261,141.676857 648.911261,140.704546 Z M646.482644,139.198173 C646.482644,138.518306 646.8582,138.028957 647.493866,138.028957 C647.8649,138.03877 648.209853,138.219887 648.425875,138.518306 L648.425875,139.865821 C648.212507,140.168044 647.866523,140.35197 647.493866,140.36128 C646.859605,140.36128 646.482644,139.872209 646.482644,139.198173 Z M650.356324,137.149178 C650.417209,137.089399 650.451178,137.007896 650.450565,136.923061 C650.451388,136.837604 650.417687,136.755354 650.356937,136.69456 C650.296186,136.633766 650.213411,136.599454 650.126974,136.599235 C649.945674,136.59923 649.798311,136.743814 649.796923,136.923061 C649.797808,137.008552 649.833146,137.090162 649.895102,137.149802 C649.957058,137.209442 650.040515,137.242187 650.126974,137.240777 C650.212771,137.241974 650.29544,137.208958 650.356324,137.149178 Z M650.366296,137.679303 L649.881191,137.679303 L649.881191,140.748982 L650.366296,140.748982 L650.366296,137.679303 Z M652.70924,140.62845 L652.566546,140.266021 C652.479149,140.352583 652.360196,140.400728 652.236494,140.399606 C652.139675,140.394563 652.04983,140.348241 651.990228,140.272635 C651.930626,140.197028 651.90713,140.099576 651.925825,140.005516 L651.925825,138.098943 L652.560366,138.098943 L652.560366,137.679303 L651.925825,137.679303 L651.925825,136.8403 L651.433978,136.8403 L651.433978,137.679303 L650.917412,137.679303 L650.917412,138.098943 L651.435101,138.098943 L651.435101,140.107441 C651.40726,140.299995 651.470675,140.494496 651.607016,140.634722 C651.743357,140.774949 651.937426,140.845269 652.133125,140.825356 C652.344032,140.838267 652.551423,140.767384 652.70924,140.62845 Z M655.679142,138.638283 C655.679142,137.895094 655.13561,137.602096 654.468766,137.602096 C653.997891,137.586475 653.542961,137.771815 653.219907,138.110885 L653.446309,138.441376 C653.684678,138.164379 654.036395,138.008046 654.40416,138.015626 C654.857244,138.015626 655.193756,138.25058 655.193756,138.657445 L655.193756,139.210115 C654.926646,138.928736 654.54791,138.777713 654.158096,138.79714 C653.875061,138.775988 653.596066,138.873421 653.389257,139.06564 C653.182449,139.257859 653.06687,139.527165 653.070752,139.807777 C653.072552,140.087133 653.189654,140.353648 653.394939,140.545605 C653.600224,140.737562 653.875888,140.838311 654.158096,140.824523 C654.549511,140.83827 654.927584,140.682847 655.193756,140.398773 L655.193756,140.748149 L655.679142,140.748149 L655.679142,138.638283 Z M653.671142,140.176129 C653.527673,139.954057 653.527673,139.669828 653.671142,139.447757 C653.814612,139.225685 654.075443,139.106183 654.339554,139.141518 C654.667676,139.128506 654.983294,139.266935 655.193756,139.516167 L655.193756,140.100775 C654.985821,140.354045 654.66922,140.495478 654.339554,140.482368 C654.075443,140.517702 653.814612,140.3982 653.671142,140.176129 Z M657.140919,136.510086 L656.655532,136.510086 L656.655532,140.748982 L657.140919,140.748982 L657.140919,136.510086 Z M662.227363,138.638283 C662.227363,137.895094 661.683551,137.602096 661.016987,137.602096 C660.545952,137.586495 660.090857,137.771819 659.767567,138.110885 L659.994249,138.441376 C660.232681,138.164303 660.584519,138.007962 660.952381,138.015626 C661.405184,138.015626 661.741977,138.25058 661.741977,138.657445 L661.741977,139.210115 C661.474823,138.928799 661.096118,138.777789 660.706317,138.79714 C660.423282,138.775988 660.144287,138.873421 659.937478,139.06564 C659.73067,139.257859 659.615091,139.527165 659.618973,139.807777 C659.620774,140.087133 659.737875,140.353648 659.94316,140.545605 C660.148445,140.737562 660.424109,140.838311 660.706317,140.824523 C661.097691,140.838046 661.475674,140.682661 661.741977,140.398773 L661.741977,140.748149 L662.227363,140.748149 L662.227363,138.638283 Z M660.218802,140.176129 C660.075332,139.954057 660.075332,139.669828 660.218802,139.447757 C660.362272,139.225685 660.623102,139.106183 660.887214,139.141518 C661.215505,139.12846 661.531314,139.266881 661.741977,139.516167 L661.741977,140.100775 C661.533866,140.354134 661.217057,140.495567 660.887214,140.482368 C660.623102,140.517702 660.362272,140.3982 660.218802,140.176129 Z M665.954557,140.704546 L665.954557,137.679303 L665.467766,137.679303 L665.467766,138.143379 C665.223656,137.806872 664.831554,137.606016 664.412725,137.602929 C663.590827,137.602929 663.021172,138.213921 663.021172,139.198173 C663.021172,140.189647 663.597568,140.787308 664.412725,140.787308 C664.831967,140.779806 665.223037,140.577111 665.467766,140.24047 L665.467766,140.704546 C665.467766,141.352753 664.975919,141.600483 664.45823,141.600483 C664.072165,141.631446 663.694414,141.477943 663.441952,141.187508 L663.196169,141.530497 C663.527581,141.861583 663.989659,142.031547 664.459354,141.995128 C665.223107,141.995128 665.954557,141.676857 665.954557,140.704546 Z M663.527344,139.198173 C663.527344,138.518306 663.90262,138.028957 664.536881,138.028957 C664.907892,138.038856 665.252809,138.219954 665.46889,138.518306 L665.46889,139.865821 C665.255491,140.168009 664.909526,140.351925 664.536881,140.36128 C663.90262,140.36128 663.527344,139.872209 663.527344,139.198173 Z M669.58428,140.348782 L669.351138,140.037177 C669.093491,140.291045 668.744108,140.432879 668.380365,140.431266 C668.089235,140.438491 667.807238,140.330482 667.597008,140.131229 C667.386778,139.931976 667.265718,139.657976 667.260718,139.370084 L669.784839,139.370084 L669.784839,139.249275 C669.784839,138.32751 669.228387,137.602929 668.283456,137.602929 C667.409233,137.652722 666.730751,138.376119 666.74637,139.241768 C666.76199,140.107417 667.466138,140.806425 668.341601,140.825356 C668.803564,140.83688 669.251007,140.665284 669.58428,140.348782 Z M667.254257,139.014043 C667.259384,138.456933 667.71328,138.005695 668.276715,137.997574 C668.551262,137.99177 668.816323,138.096951 669.010635,138.288807 C669.204946,138.480662 669.31169,138.742587 669.306194,139.014043 L667.254257,139.014043 Z M673.1626,138.59468 C673.1626,137.928143 672.819347,137.602929 672.172165,137.602929 C671.741417,137.613561 671.335061,137.802853 671.052518,138.124494 L671.052518,137.680136 L670.566851,137.680136 L670.566851,140.749815 L671.052518,140.749815 L671.052518,138.506364 C671.273267,138.218609 671.612771,138.043742 671.977786,138.02979 C672.399128,138.02979 672.683393,138.196424 672.683393,138.741873 L672.683393,140.749815 L673.1626,140.749815 L673.1626,138.59468 Z M676.662831,140.291016 L676.33924,139.999128 C676.15844,140.255977 675.859616,140.406308 675.543184,140.399606 C674.883081,140.399606 674.462301,139.891094 674.462301,139.210949 C674.462301,138.530803 674.883643,138.028957 675.543184,138.028957 C675.859321,138.016702 676.159767,138.165439 676.33924,138.423047 L676.662831,138.136991 C676.395365,137.780766 675.965479,137.58034 675.517342,137.602929 C674.644909,137.640498 673.957161,138.350742 673.957161,139.214142 C673.957161,140.077543 674.644909,140.787787 675.517342,140.825356 C675.965601,140.848234 676.395658,140.647624 676.662831,140.291016 Z M677.179677,141.950137 C677.293896,141.979003 677.411225,141.99411 677.529111,141.995128 C677.941372,142.011722 678.315519,141.758099 678.44848,141.371916 L680.014749,137.678192 L679.490319,137.678192 L678.44848,140.195201 L677.41282,137.678192 L676.881929,137.678192 L678.189495,140.77981 L677.982475,141.243608 C677.925091,141.447626 677.73007,141.583262 677.51647,141.567712 C677.42558,141.56706 677.335591,141.54983 677.251025,141.516888 L677.179677,141.950137 Z" id="_caballero-digital-agency"></path>
                </g>
            </g>
        </g>
    </g>
</svg>