<?xml version="1.0" encoding="UTF-8"?>
<svg width="142px" height="16px" viewBox="0 0 142 16" version="1.1" xmlns="http://www.w3.org/2000/svg" xmlns:xlink="http://www.w3.org/1999/xlink">
    <!-- Generator: sketchtool 63.1 (101010) - https://sketch.com -->
    <title>0AC00B33-19BF-4C65-AA00-AABC0592D097</title>
    <desc>Created with sketchtool.</desc>
    <g id="apstiprinats" stroke="none" stroke-width="1" fill="none" fill-rule="evenodd">
        <g id="EKO-nams-sakumlapa-apstiprinats-dizains-ar-proporciju-2" transform="translate(-85.000000, -3507.000000)" fill="#050302">
            <g id="Footer" transform="translate(60.000000, 3394.000000)">
                <g id="1" transform="translate(25.000000, 113.000000)">
                    <path d="M15.358,0.0562 L15.358,2.3402 L2.283,2.3402 L2.283,6.5932 L9.042,6.5932 L9.042,8.8772 L2.283,8.8772 L2.283,13.1302 L15.358,13.1302 L15.358,15.4142 L0,15.4142 L0,0.0562 L15.358,0.0562 Z M94.4952,0.0566 L101.6552,15.4146 L98.8922,15.4146 L97.4862,12.3986 L90.6692,12.3986 L91.6352,10.1156 L96.5462,10.1156 L92.6402,1.9246 L86.3352,15.4146 L83.6312,15.4146 L90.7942,0.0566 L94.4952,0.0566 Z M65.9386,0.0566 L78.4286,12.5436 L78.4286,0.0566 L80.8346,0.0566 L80.8346,15.4146 L78.0676,15.4146 L65.5336,2.8816 L65.5336,15.4146 L63.1246,15.4146 L63.1246,0.0566 L65.9386,0.0566 Z M107.7069,0.0566 L113.6979,8.3056 L119.6849,0.0566 L122.9069,0.0566 L122.9069,15.4146 L120.4999,15.4146 L120.4999,2.8406 L113.6979,12.3346 L106.8109,2.7606 L106.8109,15.4146 L104.4019,15.4146 L104.4019,0.0566 L107.7069,0.0566 Z M20.9372,0.057 L20.9372,15.415 L18.5242,15.415 L18.5242,0.057 L20.9372,0.057 Z M34.0832,0.0566 L26.4272,7.7106 L34.1282,15.4146 L30.9002,15.4146 L23.1892,7.7046 L24.8102,6.0836 L24.8202,6.0926 L30.8552,0.0566 L34.0832,0.0566 Z M49.8002,0 C50.9671565,0 51.9236783,0.905784499 52.0046481,2.05223638 L52.0102,2.21 L52.0102,13.191 C52.0102,14.3579565 51.1044155,15.3144783 49.9579636,15.3954481 L49.8002,15.401 L38.8182,15.401 C37.6512435,15.401 36.6938068,14.4952155 36.6127574,13.3487636 L36.6072,13.191 L36.6072,2.21 C36.6072,1.04304348 37.5138994,0.0865217391 38.6604309,0.00555190269 L38.8182,0 L49.8002,0 Z M141.2799,0.0359 L141.2799,2.3399 L128.2069,2.3399 L128.2069,6.6479 L139.0729,6.6479 C140.239857,6.6479 141.193633,7.55276957 141.274365,8.69739158 L141.2799,8.8549 L141.2799,13.1759 C141.2799,14.3428565 140.37686,15.2975484 139.230647,15.3783591 L139.0729,15.3839 L125.9009,15.3839 L125.9009,13.0809 L138.9759,13.0809 L138.9759,8.9549 L128.1119,8.9549 C126.942074,8.9549 125.987257,8.04820057 125.906441,6.90079398 L125.9009,6.7429 L125.9009,2.2469 C125.9009,1.07707391 126.804855,0.122257278 127.953773,0.0414411359 L128.1119,0.0359 L141.2799,0.0359 Z M49.7062,2.305 L38.9132,2.305 L38.9132,13.096 L49.7062,13.096 L49.7062,2.305 Z" id="eko-nams-logo-footer"></path>
                </g>
            </g>
        </g>
    </g>
</svg>