<?xml version="1.0" encoding="UTF-8"?>
<svg width="30px" height="30px" viewBox="0 0 30 30" version="1.1" xmlns="http://www.w3.org/2000/svg" xmlns:xlink="http://www.w3.org/1999/xlink">
    <!-- Generator: sketchtool 63.1 (101010) - https://sketch.com -->
    <title>28B52375-72DE-41D3-80CE-CD6D9C1957F3</title>
    <desc>Created with sketchtool.</desc>
    <g id="apstiprinats" stroke="none" stroke-width="1" fill="none" fill-rule="evenodd">
        <g id="EKO-nams-sakumlapa-apstiprinats-dizains-ar-proporciju-2" transform="translate(-208.000000, -502.000000)" fill="#FFFFFF" fill-rule="nonzero">
            <g id="hero" transform="translate(0.000000, 24.000000)">
                <g id="Group-6" transform="translate(208.000000, 478.000000)">
                    <g id="eko-nams-audio-mute">
                        <path d="M25.1487,6.9611 C24.8831,7.1592 24.8283,7.5351 25.0263,7.8007 C26.5304,9.8179 27.3254,12.2182 27.3254,14.7421 C27.3254,21.1519 22.1107,26.3667 15.7009,26.3667 C15.3696,26.3667 15.1009,26.6354 15.1009,26.9667 C15.1009,27.2981 15.3696,27.5667 15.7009,27.5667 C22.7724,27.5667 28.5254,21.8136 28.5254,14.7421 C28.5254,11.9577 27.6481,9.3094 25.9884,7.0834 C25.7903,6.8177 25.4144,6.7629 25.1487,6.9611 Z" id="Path"></path>
                        <path d="M15.7009,3.1176 C17.9122,3.1176 20.0629,3.7407 21.9206,4.9196 C22.0203,4.9829 22.1315,5.0131 22.2415,5.0131 C22.4401,5.0131 22.6344,4.9146 22.7487,4.7345 C22.9262,4.4547 22.8433,4.084 22.5635,3.9064 C20.5132,2.6053 18.1402,1.9176 15.7008,1.9176 C15.3695,1.9176 15.1008,2.1863 15.1008,2.5176 C15.1008,2.8489 15.3696,3.1176 15.7009,3.1176 Z" id="Path"></path>
                        <path d="M29.3085,0.1757 C29.0743,-0.0586 28.6942,-0.0586 28.4601,0.1757 L20.6147,8.021 C19.2361,7.0104 17.5374,6.4118 15.7009,6.4118 C15.3696,6.4118 15.1009,6.6805 15.1009,7.0118 C15.1009,7.3432 15.3696,7.6118 15.7009,7.6118 C17.206,7.6118 18.6028,8.0818 19.7547,8.881 L17.5254,11.1103 C16.9763,10.8333 16.3567,10.6763 15.7009,10.6763 C15.3696,10.6763 15.1009,10.945 15.1009,11.2763 C15.1009,11.6076 15.3696,11.8763 15.7009,11.8763 C16.0189,11.8763 16.3246,11.9291 16.6106,12.0252 L7.6791,20.9567 L6.7565,20.0355 C6.644,19.9232 6.4916,19.8601 6.3326,19.8601 L1.2,19.8601 L1.2,9.6242 L6.3326,9.6242 C6.4916,9.6242 6.644,9.5611 6.7565,9.4488 L12.2491,3.9646 L12.2491,13.6422 C12.2491,13.9735 12.5178,14.2422 12.8491,14.2422 C13.1804,14.2422 13.4491,13.9735 13.4491,13.6422 L13.4491,2.5176 C13.4491,2.275 13.303,2.0563 13.0789,1.9634 C12.8547,1.8706 12.5968,1.9217 12.4251,2.093 L6.0844,8.4242 L0.6,8.4242 C0.2687,8.4242 0,8.6929 0,9.0242 L0,20.46 C0,20.7913 0.2687,21.06 0.6,21.06 L6.0844,21.06 L6.8306,21.8051 L0.1758,28.46 C-0.0585,28.6943 -0.0585,29.0742 0.1758,29.3085 C0.2929,29.4256 0.4465,29.4842 0.6001,29.4842 C0.7537,29.4842 0.9072,29.4256 1.0244,29.3085 L7.6799,22.653 L12.4253,27.3912 C12.54,27.5058 12.6934,27.5666 12.8494,27.5666 C12.9267,27.5666 13.0048,27.5517 13.0791,27.5208 C13.3032,27.4279 13.4493,27.2091 13.4493,26.9666 L13.4493,19.542 C13.4493,19.2107 13.1806,18.942 12.8493,18.942 C12.518,18.942 12.2493,19.2107 12.2493,19.542 L12.2493,25.5196 L8.5285,21.8044 L17.6702,12.6626 C18.2219,13.1853 18.567,13.9239 18.567,14.742 C18.567,16.3223 17.2814,17.608 15.7011,17.608 C15.3698,17.608 15.1011,17.8767 15.1011,18.208 C15.1011,18.5393 15.3698,18.808 15.7011,18.808 C17.9431,18.808 19.767,16.984 19.767,14.742 C19.767,13.593 19.2872,12.5546 18.5183,11.8145 L20.6842,9.6486 C22.0079,10.9439 22.8315,12.7482 22.8315,14.742 C22.8315,18.6737 19.6329,21.8723 15.7011,21.8723 C15.3698,21.8723 15.1011,22.1409 15.1011,22.4723 C15.1011,22.8036 15.3698,23.0723 15.7011,23.0723 C20.2945,23.0723 24.0315,19.3353 24.0315,14.742 C24.0315,12.4173 23.0733,10.313 21.5323,8.8005 L29.3086,1.0242 C29.5428,0.7899 29.5428,0.41 29.3085,0.1757 Z" id="Path"></path>
                    </g>
                </g>
            </g>
        </g>
    </g>
</svg>