<?xml version="1.0" encoding="UTF-8"?>
<svg width="123px" height="15px" viewBox="0 0 123 15" version="1.1" xmlns="http://www.w3.org/2000/svg" xmlns:xlink="http://www.w3.org/1999/xlink">
    <!-- Generator: sketchtool 63.1 (101010) - https://sketch.com -->
    <title>58EEC3F0-CBC6-462F-B764-4BBF8E6C7571</title>
    <desc>Created with sketchtool.</desc>
    <g id="apstiprinats" stroke="none" stroke-width="1" fill="none" fill-rule="evenodd">
        <g id="EKO-nams-sakumlapa-apstiprinats-dizains-ar-proporciju-2" transform="translate(-111.000000, -125.000000)" fill="#FFFFFF">
            <g id="Group-12">
                <g id="logo" transform="translate(85.000000, 0.000000)">
                    <path d="M55.448,125.712 L48.896,132.336 L55.52,139.032 L52.712,139.032 L46.088,132.336 L52.712,125.712 L55.448,125.712 Z M44.144,125.712 L44.144,139.032 L42.056,139.032 L42.056,125.712 L44.144,125.712 Z M39.32,125.712 L39.32,127.728 L28.016,127.728 L28.016,131.4 L33.848,131.4 L33.848,133.344 L28.016,133.344 L28.016,137.016 L39.32,137.016 L39.32,139.032 L26,139.032 L26,125.712 L39.32,125.712 Z M119.096,125.712 L124.28,132.84 L129.464,125.712 L132.199,125.712 L132.199,139.032 L130.112,139.032 L130.112,128.16 L124.28,136.368 L118.304,128.088 L118.304,139.032 L116.216,139.032 L116.216,125.712 L119.096,125.712 Z M83.024,125.712 L93.824,136.512 L93.824,125.712 L95.84,125.712 L95.84,139.032 L93.464,139.032 L82.664,128.16 L82.664,139.032 L80.576,139.032 L80.576,125.712 L83.024,125.712 Z M107.648,125.712 L113.84,139.032 L111.464,139.032 L110.24,136.368 L104.336,136.368 L105.199,134.424 L109.448,134.424 L106.064,127.368 L100.592,139.032 L98.288,139.032 L104.48,125.712 L107.648,125.712 Z M69.056,125.712 C70.0845714,125.712 70.9172245,126.495673 70.9941924,127.441057 L71,127.584 L71,137.088 C71,138.116571 70.2163265,138.883918 69.2087464,138.954667 L69.056,138.96 L59.552,138.96 C58.592,138.96 57.7626122,138.241633 57.6857998,137.240272 L57.68,137.088 L57.68,127.584 C57.68,126.624 58.4636735,125.794612 59.4090573,125.7178 L59.552,125.712 L69.056,125.712 Z M148.1116,125.7119 L148.1116,127.7279 L136.8076,127.7279 L136.8076,131.3999 L146.1686,131.3999 C147.197171,131.3999 148.028917,132.183573 148.105799,133.191154 L148.1116,133.3439 L148.1116,137.0879 C148.1116,138.0479 147.328834,138.877288 146.32134,138.9541 L146.1686,138.9599 L134.7926,138.9599 L134.7926,137.0159 L146.0956,137.0159 L146.0956,133.4159 L136.7356,133.4159 C135.707029,133.4159 134.875283,132.632227 134.798401,131.686843 L134.7926,131.5439 L134.7926,127.6559 C134.7926,126.627329 135.575366,125.794676 136.58286,125.717708 L136.7356,125.7119 L148.1116,125.7119 Z M68.984,127.656 L59.624,127.656 L59.624,137.016 L68.984,137.016 L68.984,127.656 Z" id="ekonams-logo"></path>
                </g>
            </g>
        </g>
    </g>
</svg>